<?xml version="1.0" encoding="utf-8"?>
<!-- Generator: Adobe Illustrator 27.5.0, SVG Export Plug-In . SVG Version: 6.00 Build 0)  -->
<svg version="1.1" xmlns="http://www.w3.org/2000/svg" xmlns:xlink="http://www.w3.org/1999/xlink" x="0px" y="0px"
	 viewBox="0 0 500 500" style="enable-background:new 0 0 500 500;" xml:space="preserve">
<g id="BACKGROUND">
	<rect style="fill:#F9F9F9;" width="500" height="500"/>
</g>
<g id="TEXT">
	<g>
		
			<text transform="matrix(1 0 0 1 105.9075 355.743)" style="fill:#6A3093; font-family:'DMSans-Bold'; font-size:41.9px; letter-spacing:1;">CREATIVEPEN</text>
		<text transform="matrix(1 0 0 1 183.511 385.4864)" style="font-family:'DMSans-Medium'; font-size:20px;">Brand Tagline</text>
	</g>
</g>
<g id="OBJECT">
	<g>
		
			<linearGradient id="SVGID_1_" gradientUnits="userSpaceOnUse" x1="243.0339" y1="226.9117" x2="330.4211" y2="226.9117" gradientTransform="matrix(0.7071 0.7071 -0.7071 0.7071 207.8945 -112.1161)">
			<stop  offset="0" style="stop-color:#A044FF"/>
			<stop  offset="1" style="stop-color:#6A3093"/>
		</linearGradient>
		<path style="fill:url(#SVGID_1_);" d="M244.821,259.279c-1.267-0.78-2.408-1.875-3.281-3.434
			c-1.991-3.557-1.811-8.062,0.713-11.263c3.698-4.69,10.725-5.178,15.038-0.799c2.984,3.029,3.704,7.764,1.76,11.545
			c-0.855,1.663-2.066,2.939-3.465,3.844c-0.65,0.42-1.05,1.13-1.056,1.904l-0.341,41.505c-0.014,1.71,1.77,2.81,3.316,2.079
			c5.466-2.584,6.871-8.756,8.6-13.198c2.349-6.037,11.571-20.368,18.337-33.046c6.766-12.678-1.794-31.077-5.288-39.987
			c-3.494-8.909-17.747-17.524-29.269-17.121c-10.01,0.35-21.76,4.283-31.511,25.486c-9.751,21.203-4.824,30.018,4.264,44.088
			c9.088,14.071,10.816,24.054,13.846,28.744c2.251,3.485,1.83,4.699,6.451,5.47c1.395,0.233,2.678-0.829,2.69-2.244l0.341-41.573
			C245.972,260.455,245.523,259.711,244.821,259.279z"/>
		<g>
			
				<linearGradient id="SVGID_00000065794434146734803000000002419453371439929023_" gradientUnits="userSpaceOnUse" x1="171.1783" y1="132.2833" x2="220.4227" y2="168.9843" gradientTransform="matrix(0.7071 0.7071 -0.7071 0.7071 207.8945 -112.1161)">
				<stop  offset="0" style="stop-color:#A044FF"/>
				<stop  offset="1" style="stop-color:#6A3093"/>
			</linearGradient>
			<path style="fill:url(#SVGID_00000065794434146734803000000002419453371439929023_);" d="M238.353,130.054L238.353,130.054
				c-2.649,0-4.796-2.147-4.796-4.796v-5.093c0-2.649,2.147-4.796,4.796-4.796l0,0c2.649,0,4.796,2.147,4.796,4.796v5.093
				C243.149,127.907,241.001,130.054,238.353,130.054z"/>
			
				<linearGradient id="SVGID_00000168837779469515742280000002045213837406501562_" gradientUnits="userSpaceOnUse" x1="173.2485" y1="173.1581" x2="288.3219" y2="173.1581" gradientTransform="matrix(0.7071 0.7071 -0.7071 0.7071 207.8945 -112.1161)">
				<stop  offset="0" style="stop-color:#A044FF"/>
				<stop  offset="1" style="stop-color:#6A3093"/>
			</linearGradient>
			<path style="fill:url(#SVGID_00000168837779469515742280000002045213837406501562_);" d="M285.632,128.041v89.851
				c-0.318,0.171-0.685,0.294-1.052,0.342c-0.074,0.024-0.171,0.024-0.245,0.024c-0.22-0.587-0.44-1.101-0.636-1.615
				c-0.391-0.979-0.856-1.957-1.419-2.911c-5.773-9.785-20.28-17.76-32.56-17.32c-14.041,0.489-24.609,7.681-32.853,22.506
				c-0.71,1.272-1.394,2.593-2.055,3.963c-0.098,0.025-0.196,0.025-0.293,0.025c-0.538,0-1.052-0.171-1.492-0.44v-92.37
				c0-3.131,2.568-5.675,5.7-5.675c3.156,0,5.7,2.544,5.7,5.675v21.38c0,2.593,2.104,4.672,4.673,4.672
				c2.568,0,4.672-2.079,4.672-4.672V140.59c0-2.642,2.128-4.77,4.77-4.77c2.642,0,4.77,2.128,4.77,4.77v22.506
				c0,2.813,2.275,5.088,5.088,5.088c2.813,0,5.088-2.275,5.088-5.088V114.66c0-2.985,2.397-5.406,5.382-5.406
				c2.984,0,5.406,2.422,5.406,5.406v25.514c0,3.107,2.495,5.602,5.602,5.602c3.082,0,5.602-2.495,5.602-5.602v-12.133
				c0-2.813,2.275-5.088,5.064-5.088C283.356,122.953,285.632,125.228,285.632,128.041z"/>
		</g>
	</g>
</g>
</svg>
